<?xml version="1.0" encoding="UTF-8"?>
<!DOCTYPE svg PUBLIC "-//W3C//DTD SVG 1.1//EN" "http://www.w3.org/Graphics/SVG/1.1/DTD/svg11.dtd">
<svg width="167mm" height="105mm" viewBox="0 0 16700 10500" version="1.1" xmlns="http://www.w3.org/2000/svg" stroke-width="28.222" stroke-linejoin="round" xml:space="preserve">
 <path fill="rgb(255,255,255)" stroke="none" d="M 8343,10492 L 0,10492 0,0 16685,0 16685,10492 8343,10492 Z"/>
 <path fill="none" stroke="rgb(179,179,179)" stroke-linejoin="round" d="M 9095,8655 L 2304,8655 2304,1333 15887,1333 15887,8655 9095,8655 Z"/>
 <path fill="none" stroke="rgb(179,179,179)" stroke-linejoin="round" d="M 2304,1332 L 2304,8654"/>
 <path fill="none" stroke="rgb(179,179,179)" stroke-linejoin="round" d="M 5020,1332 L 5020,8654"/>
 <path fill="none" stroke="rgb(179,179,179)" stroke-linejoin="round" d="M 7737,1332 L 7737,8654"/>
 <path fill="none" stroke="rgb(179,179,179)" stroke-linejoin="round" d="M 10453,1332 L 10453,8654"/>
 <path fill="none" stroke="rgb(179,179,179)" stroke-linejoin="round" d="M 13170,1332 L 13170,8654"/>
 <path fill="none" stroke="rgb(179,179,179)" stroke-linejoin="round" d="M 15887,1332 L 15887,8654"/>
 <path fill="none" stroke="rgb(179,179,179)" stroke-linejoin="round" d="M 2154,8654 L 2304,8654"/>
 <path fill="none" stroke="rgb(179,179,179)" stroke-linejoin="round" d="M 2154,8654 L 2304,8654"/>
 <path fill="none" stroke="rgb(179,179,179)" stroke-linejoin="round" d="M 2154,6823 L 2304,6823"/>
 <path fill="none" stroke="rgb(179,179,179)" stroke-linejoin="round" d="M 2154,6823 L 2304,6823"/>
 <path fill="none" stroke="rgb(179,179,179)" stroke-linejoin="round" d="M 2154,4993 L 2304,4993"/>
 <path fill="none" stroke="rgb(179,179,179)" stroke-linejoin="round" d="M 2154,4993 L 2304,4993"/>
 <path fill="none" stroke="rgb(179,179,179)" stroke-linejoin="round" d="M 2154,3162 L 2304,3162"/>
 <path fill="none" stroke="rgb(179,179,179)" stroke-linejoin="round" d="M 2154,3162 L 2304,3162"/>
 <path fill="none" stroke="rgb(179,179,179)" stroke-linejoin="round" d="M 2154,1332 L 2304,1332"/>
 <path fill="none" stroke="rgb(179,179,179)" stroke-linejoin="round" d="M 2154,1332 L 2304,1332"/>
 <path fill="none" stroke="rgb(179,179,179)" stroke-linejoin="round" d="M 2304,8654 L 2304,1332"/>
 <path fill="none" stroke="rgb(179,179,179)" stroke-linejoin="round" d="M 2304,8804 L 2304,8654"/>
 <path fill="none" stroke="rgb(179,179,179)" stroke-linejoin="round" d="M 2304,8804 L 2304,8654"/>
 <path fill="none" stroke="rgb(179,179,179)" stroke-linejoin="round" d="M 5020,8804 L 5020,8654"/>
 <path fill="none" stroke="rgb(179,179,179)" stroke-linejoin="round" d="M 5020,8804 L 5020,8654"/>
 <path fill="none" stroke="rgb(179,179,179)" stroke-linejoin="round" d="M 7737,8804 L 7737,8654"/>
 <path fill="none" stroke="rgb(179,179,179)" stroke-linejoin="round" d="M 7737,8804 L 7737,8654"/>
 <path fill="none" stroke="rgb(179,179,179)" stroke-linejoin="round" d="M 10453,8804 L 10453,8654"/>
 <path fill="none" stroke="rgb(179,179,179)" stroke-linejoin="round" d="M 10453,8804 L 10453,8654"/>
 <path fill="none" stroke="rgb(179,179,179)" stroke-linejoin="round" d="M 13170,8804 L 13170,8654"/>
 <path fill="none" stroke="rgb(179,179,179)" stroke-linejoin="round" d="M 13170,8804 L 13170,8654"/>
 <path fill="none" stroke="rgb(179,179,179)" stroke-linejoin="round" d="M 15887,8804 L 15887,8654"/>
 <path fill="none" stroke="rgb(179,179,179)" stroke-linejoin="round" d="M 15887,8804 L 15887,8654"/>
 <path fill="none" stroke="rgb(179,179,179)" stroke-linejoin="round" d="M 2304,8654 L 15887,8654"/>
 <path fill="#5c3566" stroke="none" d="M 2304,2705 L 2304,1789 14003,1789 14003,2705 2304,2705 Z"/>
 <path fill="#5c3566" stroke="none" d="M 2304,4535 L 2304,3620 10619,3620 10619,4535 2304,4535 Z"/>
 <path fill="#5c3566" stroke="none" d="M 2304,6365 L 2304,5450 2505,5450 2505,6365 2304,6365 Z"/>
 <path fill="#5c3566" stroke="none" d="M 2304,8196 L 2304,7280 2472,7280 2472,8196 2304,8196 Z"/>
 <text class="TextShape"><tspan class="TextParagraph" font-family="Helvetica, Arial, sans-serif" font-size="353px" font-weight="700"><tspan class="TextPosition" x="1207" y="7859"><tspan fill="rgb(0,0,0)" stroke="none">Maud</tspan></tspan></tspan></text>
 <text class="TextShape"><tspan class="TextParagraph" font-family="Helvetica, Arial, sans-serif" font-size="353px" font-weight="400"><tspan class="TextPosition" x="334" y="6028"><tspan fill="rgb(0,0,0)" stroke="none">Horrorshow</tspan></tspan></tspan></text>
 <text class="TextShape"><tspan class="TextParagraph" font-family="Helvetica, Arial, sans-serif" font-size="353px" font-weight="400"><tspan class="TextPosition" x="1154" y="4198"><tspan fill="rgb(0,0,0)" stroke="none">Liquid</tspan></tspan></tspan></text>
 <text class="TextShape"><tspan class="TextParagraph" font-family="Helvetica, Arial, sans-serif" font-size="353px" font-weight="400"><tspan class="TextPosition" x="334" y="2367"><tspan fill="rgb(0,0,0)" stroke="none">Handlebars</tspan></tspan></tspan></text>
 <text class="TextShape"><tspan class="TextParagraph" font-family="Helvetica, Arial, sans-serif" font-size="353px" font-weight="400"><tspan class="TextPosition" x="2211" y="9222"><tspan fill="rgb(0,0,0)" stroke="none">0</tspan></tspan></tspan></text>
 <text class="TextShape"><tspan class="TextParagraph" font-family="Helvetica, Arial, sans-serif" font-size="353px" font-weight="400"><tspan class="TextPosition" x="4649" y="9222"><tspan fill="rgb(0,0,0)" stroke="none">5000</tspan></tspan></tspan></text>
 <text class="TextShape"><tspan class="TextParagraph" font-family="Helvetica, Arial, sans-serif" font-size="353px" font-weight="400"><tspan class="TextPosition" x="7274" y="9222"><tspan fill="rgb(0,0,0)" stroke="none">10000</tspan></tspan></tspan></text>
 <text class="TextShape"><tspan class="TextParagraph" font-family="Helvetica, Arial, sans-serif" font-size="353px" font-weight="400"><tspan class="TextPosition" x="9991" y="9222"><tspan fill="rgb(0,0,0)" stroke="none">15000</tspan></tspan></tspan></text>
 <text class="TextShape"><tspan class="TextParagraph" font-family="Helvetica, Arial, sans-serif" font-size="353px" font-weight="400"><tspan class="TextPosition" x="12708" y="9222"><tspan fill="rgb(0,0,0)" stroke="none">20000</tspan></tspan></tspan></text>
 <text class="TextShape"><tspan class="TextParagraph" font-family="Helvetica, Arial, sans-serif" font-size="353px" font-weight="400"><tspan class="TextPosition" x="15425" y="9222"><tspan fill="rgb(0,0,0)" stroke="none">25000</tspan></tspan></tspan></text>
 <text class="TextShape"><tspan class="TextParagraph" font-family="Helvetica, Arial, sans-serif" font-size="459px" font-weight="700"><tspan class="TextPosition" x="2257" y="880"><tspan fill="rgb(0,0,0)" stroke="none">Render times for different template engines (smaller is better)</tspan></tspan></tspan></text>
 <text class="TextShape"><tspan class="TextParagraph" font-family="Helvetica, Arial, sans-serif" font-size="318px" font-weight="400"><tspan class="TextPosition" x="7126" y="9898"><tspan fill="rgb(0,0,0)" stroke="none">Render time (ns)</tspan></tspan></tspan></text>
</svg>
